<svg width="487" height="279" viewBox="0 0 487 279" fill="none" xmlns="http://www.w3.org/2000/svg">
<rect width="487" height="279" rx="20" fill="#458686"/>
<path d="M354.231 261.364C354.231 264.786 352.861 267.748 350.12 270.249C347.38 272.75 344.135 274 340.385 274C336.635 274 333.389 272.75 330.649 270.249C327.909 267.748 326.538 264.786 326.538 261.364C326.538 257.941 327.909 254.98 330.649 252.479C333.389 249.978 336.635 248.727 340.385 248.727C344.135 248.727 347.38 249.978 350.12 252.479C352.861 254.98 354.231 257.941 354.231 261.364ZM451.154 261.364C451.154 264.786 449.784 267.748 447.043 270.249C444.303 272.75 441.058 274 437.308 274C433.558 274 430.312 272.75 427.572 270.249C424.832 267.748 423.462 264.786 423.462 261.364C423.462 257.941 424.832 254.98 427.572 252.479C430.312 249.978 433.558 248.727 437.308 248.727C441.058 248.727 444.303 249.978 447.043 252.479C449.784 254.98 451.154 257.941 451.154 261.364ZM465 153.955V204.5C465 206.08 464.405 207.478 463.215 208.696C462.025 209.913 460.565 210.621 458.834 210.818L345.901 222.862C346.839 226.811 347.308 229.115 347.308 229.773C347.308 230.826 346.442 232.932 344.712 236.091H444.231C446.106 236.091 447.728 236.716 449.099 237.967C450.469 239.217 451.154 240.698 451.154 242.409C451.154 244.12 450.469 245.601 449.099 246.852C447.728 248.102 446.106 248.727 444.231 248.727H333.462C331.587 248.727 329.964 248.102 328.594 246.852C327.224 245.601 326.538 244.12 326.538 242.409C326.538 241.685 326.827 240.649 327.404 239.299C327.981 237.95 328.558 236.766 329.135 235.745C329.712 234.725 330.487 233.409 331.46 231.797C332.434 230.184 332.993 229.213 333.137 228.884L313.99 147.636H291.923C290.048 147.636 288.425 147.011 287.055 145.761C285.685 144.51 285 143.029 285 141.318C285 139.607 285.685 138.126 287.055 136.876C288.425 135.625 290.048 135 291.923 135H319.615C320.769 135 321.797 135.214 322.698 135.642C323.6 136.069 324.303 136.58 324.808 137.172C325.313 137.764 325.781 138.57 326.214 139.591C326.647 140.611 326.935 141.466 327.079 142.157C327.224 142.848 327.422 143.819 327.674 145.07C327.927 146.32 328.089 147.176 328.161 147.636H458.077C459.952 147.636 461.575 148.262 462.945 149.512C464.315 150.763 465 152.243 465 153.955Z" fill="white" fill-opacity="0.36"/>
</svg>
