<svg width="180" height="139" viewBox="0 0 180 139" fill="none" xmlns="http://www.w3.org/2000/svg">
<path d="M69.2308 126.364C69.2308 129.786 67.8606 132.748 65.1202 135.249C62.3798 137.75 59.1346 139 55.3846 139C51.6346 139 48.3894 137.75 45.649 135.249C42.9087 132.748 41.5385 129.786 41.5385 126.364C41.5385 122.941 42.9087 119.98 45.649 117.479C48.3894 114.978 51.6346 113.727 55.3846 113.727C59.1346 113.727 62.3798 114.978 65.1202 117.479C67.8606 119.98 69.2308 122.941 69.2308 126.364ZM166.154 126.364C166.154 129.786 164.784 132.748 162.043 135.249C159.303 137.75 156.058 139 152.308 139C148.558 139 145.312 137.75 142.572 135.249C139.832 132.748 138.462 129.786 138.462 126.364C138.462 122.941 139.832 119.98 142.572 117.479C145.312 114.978 148.558 113.727 152.308 113.727C156.058 113.727 159.303 114.978 162.043 117.479C164.784 119.98 166.154 122.941 166.154 126.364ZM180 18.9545V69.5C180 71.0795 179.405 72.4781 178.215 73.6957C177.025 74.9132 175.565 75.6207 173.834 75.8182L60.9014 87.8622C61.8389 91.8111 62.3077 94.1146 62.3077 94.7727C62.3077 95.8258 61.4423 97.9318 59.7115 101.091H159.231C161.106 101.091 162.728 101.716 164.099 102.967C165.469 104.217 166.154 105.698 166.154 107.409C166.154 109.12 165.469 110.601 164.099 111.852C162.728 113.102 161.106 113.727 159.231 113.727H48.4615C46.5865 113.727 44.9639 113.102 43.5938 111.852C42.2236 110.601 41.5385 109.12 41.5385 107.409C41.5385 106.685 41.8269 105.649 42.4038 104.299C42.9808 102.95 43.5577 101.766 44.1346 100.745C44.7115 99.7253 45.4868 98.409 46.4603 96.7965C47.4339 95.1841 47.9928 94.2133 48.137 93.8842L28.9904 12.6364H6.92308C5.04808 12.6364 3.42548 12.0111 2.05529 10.7607C0.685096 9.51018 0 8.02936 0 6.31818C0 4.60701 0.685096 3.12618 2.05529 1.87571C3.42548 0.625237 5.04808 0 6.92308 0H34.6154C35.7692 0 36.7969 0.213897 37.6983 0.64169C38.5998 1.06948 39.3029 1.57955 39.8077 2.17188C40.3125 2.7642 40.7812 3.57043 41.2139 4.59055C41.6466 5.61068 41.9351 6.46626 42.0793 7.15732C42.2236 7.84837 42.4219 8.81913 42.6743 10.0696C42.9267 11.3201 43.0889 12.1757 43.1611 12.6364H173.077C174.952 12.6364 176.575 13.2616 177.945 14.5121C179.315 15.7625 180 17.2434 180 18.9545Z" fill="white" fill-opacity="0.36"/>
</svg>
