<svg width="100" height="93" viewBox="0 0 100 93" fill="none" xmlns="http://www.w3.org/2000/svg">
<path d="M79.0314 51.8743L56.8585 46.3791L71.8592 32.5125C72.3339 32.0887 72.7125 31.5817 72.973 31.0211C73.2335 30.4606 73.3706 29.8576 73.3764 29.2476C73.3821 28.6375 73.2563 28.0325 73.0064 27.4678C72.7565 26.9032 72.3874 26.3902 71.9208 25.9588C71.4541 25.5273 70.8991 25.1862 70.2883 24.9552C69.6774 24.7241 69.0229 24.6079 68.363 24.6132C67.703 24.6185 67.0508 24.7452 66.4444 24.986C65.838 25.2268 65.2895 25.5769 64.831 26.0157L60.3726 30.1371L54.433 9.63583L57.7979 6.52527C62.4779 2.3068 68.7673 -0.037408 75.3038 0.000451549C81.8402 0.0383111 88.0974 2.45519 92.7198 6.72754C97.3422 10.9999 99.9576 16.7837 99.9995 22.826C100.041 28.8683 97.5063 34.6826 92.9435 39.0093L79.0314 51.8743ZM70.9148 59.3773L52.1963 76.6807L25.7638 75.1231L48.7419 53.8822L70.9148 59.3773ZM19.1382 68.2542L26.1664 74.751L8.59604 90.993C8.14047 91.4421 7.59191 91.802 6.98294 92.0513C6.37397 92.3005 5.71701 92.4342 5.05109 92.4442C4.38517 92.4541 3.72387 92.3403 3.10646 92.1094C2.48906 91.8786 1.92814 91.5353 1.45704 91.1002C0.985931 90.665 0.614242 90.1467 0.364048 89.5762C0.113854 89.0056 -0.0097429 88.3944 0.000599366 87.7788C0.0109416 87.1632 0.155012 86.5558 0.424253 85.9927C0.693493 85.4296 1.08241 84.9222 1.56791 84.5008L18.7158 68.6493L17.0954 44.1553L46.3163 17.1435L52.2559 37.6447L19.1382 68.2588V68.2542Z" fill="#FAF6ED"/>
</svg>
