<svg width="100" height="92" viewBox="0 0 100 92" fill="none" xmlns="http://www.w3.org/2000/svg">
<path d="M83.3332 0H58.3329C56.1995 0 54.0662 0.747508 52.4412 2.24636L2.44065 48.2468C-0.81355 51.2407 -0.81355 56.0938 2.44065 59.0876L35.7743 89.7546C39.0285 92.7485 44.3036 92.7485 47.5578 89.7546C49.187 88.2558 95.9291 45.253 97.5583 43.7541C99.1875 42.2591 100 40.2964 100 38.3337V15.3335C100 6.86557 92.5374 0 83.3332 0ZM83.3332 23.0002C78.7289 23.0002 74.9997 19.5694 74.9997 15.3335C74.9997 11.0976 78.7289 7.66675 83.3332 7.66675C87.9374 7.66675 91.6666 11.0976 91.6666 15.3335C91.6666 19.5694 87.9374 23.0002 83.3332 23.0002Z" fill="#FAF6ED"/>
</svg>
