<svg width="100" height="93" viewBox="0 0 100 93" fill="none" xmlns="http://www.w3.org/2000/svg">
<path d="M34.2093 29.7336C34.2093 29.7336 15.2888 31.7645 2.66714 33.1224C1.52952 33.2559 0.523622 33.9928 0.14641 35.1128C-0.230802 36.2327 0.146409 37.3991 0.984658 38.136C10.3611 46.4282 24.4496 58.8462 24.4496 58.8462C24.4377 58.8462 20.5817 76.9104 18.0191 88.9628C17.8035 90.0537 18.2107 91.2085 19.1926 91.899C20.1686 92.5895 21.426 92.6011 22.4139 92.0615C33.4548 85.9801 49.9923 76.8349 49.9923 76.8349C49.9923 76.8349 66.5357 85.9801 77.5587 92.0673C78.5646 92.6011 79.822 92.5895 80.798 91.899C81.7799 91.2085 82.1871 90.0537 81.9655 88.9686C79.4029 76.9103 75.5529 58.8462 75.5529 58.8462C75.5529 58.8462 89.6415 46.4282 99.0179 38.1534C99.8562 37.3933 100.227 36.2269 99.8562 35.1128C99.4849 33.9986 98.479 33.2617 97.3414 33.134C84.7198 31.7645 65.7933 29.7336 65.7933 29.7336C65.7933 29.7336 57.9497 12.917 52.7226 1.70603C52.2316 0.70214 51.2018 0 49.9923 0C48.7828 0 47.747 0.707943 47.28 1.70603C42.0469 12.917 34.2093 29.7336 34.2093 29.7336Z" fill="#FAF6ED"/>
</svg>
