<svg width="100" height="93" viewBox="0 0 100 93" fill="none" xmlns="http://www.w3.org/2000/svg">
<path d="M72.5806 31.3119H61.8209L70.7838 21.8408C71.9419 20.6181 72.5806 19.048 72.5806 17.4228V17.147C72.5806 13.4477 69.3241 10.4373 65.3225 10.4373C61.3209 10.4373 58.0645 13.4477 58.0645 17.147V19.3835H61.2903V17.147C61.2903 15.0908 63.0983 13.4193 65.3225 13.4193C67.5467 13.4193 69.3548 15.0908 69.3548 17.147V17.4228C69.3548 18.3264 68.9999 19.1971 68.3564 19.8771L58.0645 30.7512V34.294H72.5806V31.3119Z" fill="#FAF6ED"/>
<path d="M85.4838 34.294H88.7096V29.8208H91.9354V26.8387H88.7096V10.4373H84.487L75.8064 26.4869V29.8208H85.4838V34.294ZM79.2225 26.8387L85.4838 15.2623V26.8387H79.2225Z" fill="#FAF6ED"/>
<path d="M79.6855 47.1573C91.2839 44.8223 100 35.2677 100 23.8567C100 10.7027 88.4226 0 74.1936 0C61.85 0 51.5145 8.0576 48.9887 18.7797C46.1419 18.2012 43.2371 17.8925 40.3226 17.8925C18.0887 17.8925 0 34.6146 0 55.1686C0 75.7227 18.0887 92.4448 40.3226 92.4448C62.5565 92.4448 80.6452 75.7227 80.6452 55.1686C80.6452 52.4743 80.3113 49.789 79.6855 47.1573ZM74.1936 2.98209C86.6452 2.98209 96.7742 12.3458 96.7742 23.8567C96.7742 35.3676 86.6452 44.7313 74.1936 44.7313C61.7419 44.7313 51.6129 35.3676 51.6129 23.8567C51.6129 12.3458 61.7419 2.98209 74.1936 2.98209ZM70.9048 53.6776H67.7419V56.6597H70.8855C70.5065 63.3455 67.621 69.4126 63.0677 74.087L60.85 72.0368L58.5694 74.1452L60.7871 76.1954C55.7306 80.4061 49.1677 83.0721 41.9355 83.4225V80.5164H38.7097V83.4225C31.4774 83.0721 24.9145 80.4046 19.8581 76.1954L22.0758 74.1452L19.7952 72.0368L17.5774 74.087C13.0226 69.4126 10.1387 63.3455 9.75968 56.6597H12.9032V53.6776H9.75968C10.1387 46.9918 13.0242 40.9247 17.5774 36.2503L19.7952 38.3005L22.0758 36.1921L19.8581 34.1419C24.9145 29.9312 31.4774 27.2652 38.7097 26.9148V29.8209H41.9355V26.897C44.2548 27.0103 46.5516 27.3711 48.7984 27.9705C50.6629 37.8278 59.079 45.6081 69.7436 47.3332C70.3903 49.4102 70.7806 51.5335 70.9048 53.6776ZM40.3226 89.4627C19.8661 89.4627 3.22581 74.0796 3.22581 55.1686C3.22581 36.2577 19.8661 20.8746 40.3226 20.8746C43.0742 20.8746 45.8177 21.1743 48.5032 21.735C48.4355 22.4357 48.3871 23.141 48.3871 23.8567C48.3871 24.1683 48.4242 24.4725 48.4371 24.7827C45.7758 24.1728 43.0565 23.8567 40.3226 23.8567C21.6468 23.8567 6.45161 37.9038 6.45161 55.1686C6.45161 72.4334 21.6468 86.4806 40.3226 86.4806C58.9984 86.4806 74.1936 72.4334 74.1936 55.1686C74.1936 52.6413 73.8516 50.1274 73.1919 47.6672C73.5274 47.6791 73.8565 47.7134 74.1936 47.7134C74.9677 47.7134 75.7306 47.6687 76.4887 47.6061C77.0952 50.0887 77.4194 52.6249 77.4194 55.1686C77.4194 74.0796 60.779 89.4627 40.3226 89.4627Z" fill="#FAF6ED"/>
<path d="M45.1613 55.1686C45.1613 53.2273 43.8081 51.5872 41.9355 50.9699V32.803H38.7097V50.9699C36.8371 51.5872 35.4839 53.2273 35.4839 55.1686C35.4839 57.6348 37.6549 59.6418 40.3226 59.6418C41.0678 59.6418 41.7645 59.4733 42.3952 59.193L53.6984 69.6422L55.979 67.5339L44.6758 57.0846C44.979 56.5016 45.1613 55.8575 45.1613 55.1686ZM38.7097 55.1686C38.7097 54.3456 39.4323 53.6776 40.3226 53.6776C41.2129 53.6776 41.9355 54.3456 41.9355 55.1686C41.9355 55.9917 41.2129 56.6597 40.3226 56.6597C39.4323 56.6597 38.7097 55.9917 38.7097 55.1686Z" fill="#FAF6ED"/>
<path d="M88.7097 50.6956C86.042 50.6956 83.871 52.7025 83.871 55.1687C83.871 57.034 85.1145 58.6339 86.8742 59.3034C85.8629 69.1204 81.2307 78.3604 73.7258 85.4369L76.0291 87.5244C84.092 79.923 89.0516 69.9852 90.1016 59.4301C92.0887 58.8739 93.5484 57.1861 93.5484 55.1687C93.5484 52.7025 91.3774 50.6956 88.7097 50.6956ZM88.7097 56.6597C87.8194 56.6597 87.0968 55.9917 87.0968 55.1687C87.0968 54.3456 87.8194 53.6776 88.7097 53.6776C89.6 53.6776 90.3226 54.3456 90.3226 55.1687C90.3226 55.9917 89.6 56.6597 88.7097 56.6597Z" fill="#FAF6ED"/>
<path d="M8.52104 23.4587C16.0339 17.0159 25.7001 13.0542 35.8581 12.158C36.5904 13.7728 38.3146 14.9105 40.3227 14.9105C42.9904 14.9105 45.1614 12.9036 45.1614 10.4374C45.1614 7.97118 42.9904 5.96423 40.3227 5.96423C38.142 5.96423 36.3146 7.31363 35.713 9.1506C24.792 10.081 14.4001 14.3529 6.3291 21.2728L8.52104 23.4587ZM40.3227 8.94632C41.213 8.94632 41.9356 9.61431 41.9356 10.4374C41.9356 11.2604 41.213 11.9284 40.3227 11.9284C39.4323 11.9284 38.7098 11.2604 38.7098 10.4374C38.7098 9.61431 39.4323 8.94632 40.3227 8.94632Z" fill="#FAF6ED"/>
</svg>
