<svg width="80" height="93" viewBox="0 0 80 93" fill="none" xmlns="http://www.w3.org/2000/svg">
<path d="M13.3333 0C5.96953 0 0 5.17361 0 11.5556V80.8892C0 87.2713 5.96953 92.4448 13.3333 92.4448H76.6667C78.5073 92.4448 80 91.1511 80 89.5559C80 87.9606 78.5073 86.667 76.6667 86.667H13.3333C9.65147 86.667 6.66667 84.0802 6.66667 80.8892H73.3333C77.0153 80.8892 80 78.3024 80 75.1114V11.5556C80 5.17361 74.0307 0 66.6667 0H13.3333ZM50 31.7779C50 36.5644 45.5227 40.4446 40 40.4446C34.4771 40.4446 30 36.5644 30 31.7779C30 26.9914 34.4771 23.1112 40 23.1112C45.5227 23.1112 50 26.9914 50 31.7779ZM20 50.5557C20 48.1626 22.2386 46.2224 25 46.2224H55C57.7613 46.2224 60 48.1626 60 50.5557V52.0002C60 58.3823 54.0307 63.5558 46.6667 63.5558H33.3333C25.9695 63.5558 20 58.3823 20 52.0002V50.5557Z" fill="#FAF6ED"/>
</svg>
