<svg width="100" height="93" viewBox="0 0 100 93" fill="none" xmlns="http://www.w3.org/2000/svg">
<path d="M91.2397 43.5317L68.6238 51.9998H87.0167C85.5134 54.6811 83.8408 57.2865 81.973 59.7655L56.1402 69.3332H72.8389C61.2697 78.8503 44.7446 83.8391 21.2709 78.8702L7.98793 91.1715C6.15917 92.8651 3.19961 92.864 1.37084 91.1715C-0.456948 89.4788 -0.456948 86.737 1.37084 85.0434L50.7748 39.2905C51.7196 38.1575 51.68 36.5478 50.5578 35.5078C49.3393 34.3793 47.3643 34.3793 46.1477 35.5078L13.2767 65.9496C4.96014 10.4719 71.7042 1.46539 93.5402 0.0149145C97.2192 -0.229559 100.249 2.57701 99.9838 5.9823C99.3502 14.1787 97.3615 29.2136 91.2397 43.5317Z" fill="#FAF6ED"/>
</svg>
